<svg height="100%" version="1.1" width="100%" xmlns="http://www.w3.org/2000/svg" preserveAspectRatio="xMidYMid meet" viewBox="0 0 600 442" xmlns:xlink="http://www.w3.org/1999/xlink"><desc>Created with Snap</desc><defs/><g id="root" contentwidth="427.29999999999995" contentheight="232">
          <rect class="background" height="2000%" width="2000%" y="-1000%" x="-1000%" style="" fill="#ffffff"/>
          <rect class="watermarklayer" height="100%" width="100%" y="0" x="0" style="" fill="none"/>
          <g class="content" id="content" transform="matrix(1,0,0,1,1.95,-12)">
            <g class="icon">
            <svg height="68" version="1.1" width="240" xmlns="http://www.w3.org/2000/svg" x="181" y="281" preserveAspectRatio="none" transform="matrix(1,0,0,1,0,0)"><desc>Created with Snap</desc><defs/><svg xmlns="http://www.w3.org/2000/svg" viewBox="181 281 240 68"><g id="prefix-WMp-编组" transform="translate(180.603 281.284)"><path id="prefix-WMp-矩形备份-2" fill="#02C4B4" d="M164.023 0h75.887l-76.8 67.716-51.53-24.754z"/><path id="prefix-WMp-矩形备份" fill="#003373" transform="matrix(-1 0 0 1 163.109 0)" d="M79.907 0h83.202L75.887 67.716H0z"/></g></svg></svg><svg height="68" version="1.1" width="240" xmlns="http://www.w3.org/2000/svg" x="181" y="117" preserveAspectRatio="none" transform="matrix(1,0,0,1,0,0)"><desc>Created with Snap</desc><defs/><svg xmlns="http://www.w3.org/2000/svg" viewBox="181 117 240 68"><g id="prefix-g7L-编组-2" transform="translate(180.603 117)"><path id="prefix-g7L-矩形备份-3" fill="#003373" transform="matrix(1 0 0 -1 0 68.112)" d="M164.023 0h75.887l-76.8 68.112-51.53-25.118z"/><path id="prefix-g7L-矩形" fill="#02C4B4" d="M87.222 0h75.887L83.202 67.716H0z"/></g></svg></svg></g>
            <g id="icon_name_and_slogan_gap">
            </g>
            <g class="name_and_slogan" id="name_and_slogan_id">
              <g class="name"><g id="nameDefaultGroup"><path d="M125.4 203.8 L112.4 203.8 L112.4 249.5 L97.4 249.5 L97.4 203.8 L84.4 203.8 L84.4 199.2 L125.4 199.2 L125.4 203.8 Z M175.5 219.3 L175.5 249.6 L160.6 249.6 L160.6 223.9 L143.6 223.9 L143.6 249.6 L136.1 249.6 L136.1 199.6 L143.6 199.6 L143.6 219.3 L175.5 219.3 Z M193.8 237.3 L193.8 245 L228.1 245 L228.1 249.6 L186.3 249.6 L186.3 217 L228.1 217 L228.1 229.8 Q228.1 233.7 226.1 235.5 Q224.2 237.3 220.6 237.3 L193.8 237.3 Z M193.8 221.7 L193.8 232.6 L213.2 232.6 L213.2 221.7 L193.8 221.7 Z M246.2 249.4 L238.9 249.4 L238.9 199.2 L283.4 199.2 L283.4 215.2 Q283.4 217.3 282.8 219.1 Q282.2 220.9 281.2 222.3 Q280.1 223.6 278.6 224.4 Q277.1 225.2 275.1 225.2 L284 249.4 L268.1 249.4 L259.2 225.4 L246.2 225.4 L246.2 249.4 Z M246.2 220.7 L268.5 220.7 L268.5 203.8 L246.2 203.8 L246.2 220.7 Z M335.3 216.7 L335.3 239.2 Q335.3 241.7 334.5 243.6 Q333.7 245.5 332.3 246.8 Q330.9 248.1 329.1 248.8 Q327.3 249.4 325.2 249.4 L294.8 249.4 L294.8 216.7 L335.3 216.7 Z M302.1 221.3 L302.1 244.8 L318.6 244.8 L318.6 221.3 L302.1 221.3 Z M386.6 217 L386.6 249.5 L371.7 249.5 L371.7 247.8 Q370.5 248.7 369.1 249.1 Q367.7 249.5 366.3 249.5 L346 249.5 L346 217 L353.6 217 L353.6 245.5 L364.1 245.5 Q366.3 245.6 368.4 244.7 Q370.4 243.7 371.7 241.9 L371.7 217 L386.6 217 Z M416.2 221.2 L416.2 244.9 L424.4 244.9 L424.4 249.5 L401.3 249.5 L401.3 221.2 L394.1 221.2 L394.1 216.6 L401.3 216.6 L401.3 205.1 L416.2 205.1 L416.2 216.6 L424.4 216.6 L424.4 221.2 L416.2 221.2 Z M439.5 237.3 L439.5 245 L473.9 245 L473.9 249.6 L432 249.6 L432 217 L473.9 217 L473.9 229.8 Q473.9 233.7 471.9 235.5 Q469.9 237.3 466.3 237.3 L439.5 237.3 Z M439.5 221.7 L439.5 232.6 L458.9 232.6 L458.9 221.7 L439.5 221.7 Z M511.7 222.6 L499.6 229.5 L499.6 249.5 L484.6 249.5 L484.6 217 L499.6 217 L499.6 223.5 L511.7 216.5 L511.7 222.6 Z" style="" fill="#104391" transform="matrix(1,0,0,1,0,0)"/></g></g>
              <g class="slogan"><g id="sloganDefaultGroup"><path d="M203.7 266.6 L203.7 267.6 Q203.1 268.6 202.3 269.4 Q201.6 270.3 200.5 271 Q199.5 271.8 198.2 272.5 Q196.8 273.1 194.9 273.8 L194.4 272.8 Q196.1 272.2 197.3 271.7 Q198.5 271.1 199.5 270.5 Q200.4 269.9 201.1 269.2 Q201.7 268.5 202.3 267.6 L198.7 267.6 Q198.5 267.8 198.3 268 Q198.1 268.2 197.9 268.4 Q198.3 268.7 198.7 269 Q199.1 269.4 199.5 269.7 L198.8 270.5 Q198.5 270.2 198 269.8 Q197.6 269.4 197.2 269.1 Q196.8 269.4 196.3 269.8 Q195.8 270.2 195.3 270.5 L194.6 269.7 Q196.2 268.7 197.4 267.6 Q198.5 266.4 199.4 265.2 Q197.7 266.2 195.4 267 L195 266 Q197.4 265.2 199.1 264.2 Q200.9 263.2 202 261.7 L198.2 261.7 Q198 261.8 197.9 262 Q197.7 262.2 197.6 262.3 Q197.9 262.6 198.3 262.9 Q198.6 263.2 199 263.4 L198.3 264.2 Q198 263.9 197.6 263.6 Q197.2 263.3 196.8 263 Q196.3 263.5 195.8 263.9 L195.1 263.1 Q196.4 262.2 197.3 261.1 Q198.3 260.1 198.9 259 L199.8 259.5 Q199.6 259.8 199.4 260.1 Q199.2 260.4 199 260.6 L203.3 260.6 L203.3 261.7 Q202.5 262.7 201.6 263.5 Q200.7 264.4 199.5 265.1 L200.4 265.4 Q200.2 265.7 200 266 Q199.8 266.3 199.6 266.6 L203.7 266.6 Z M194.7 269 Q194.4 268.6 194 268.1 Q193.6 267.6 193.2 267.2 L193.2 273.6 L192.2 273.6 L192.2 266.6 Q191.8 267.7 191.2 268.7 Q190.7 269.6 190.2 270.5 L189.4 269.8 Q190.1 268.7 190.8 267.4 Q191.5 266.1 192 264.8 L190 264.8 L190 263.7 L192.2 263.7 L192.2 261.4 Q191.6 261.5 191.1 261.6 Q190.6 261.7 190.2 261.8 L190 260.7 Q190.6 260.6 191.2 260.5 Q191.9 260.4 192.6 260.2 Q193.2 260.1 193.9 260 Q194.5 259.8 195.1 259.7 L195.3 260.8 Q194.9 260.9 194.3 261 Q193.8 261.1 193.2 261.2 L193.2 263.7 L195.2 263.7 L195.2 264.8 L193.2 264.8 L193.2 266.4 L193.6 266.1 Q194 266.5 194.5 267.2 Q195 267.8 195.4 268.3 L194.7 269 Z M225.9 262.2 Q225.9 262.5 225.9 263.2 Q225.9 263.8 225.9 264.7 Q225.8 265.6 225.8 266.5 Q225.8 267.5 225.7 268.4 Q225.7 269.3 225.7 270 Q225.7 270.7 225.7 271.1 Q225.6 271.6 225.5 272 Q225.4 272.4 225.1 272.6 Q224.9 272.8 224.4 273 Q223.9 273.1 223.3 273.2 L222.3 273.3 L222 272 L223 271.9 Q223.5 271.9 223.7 271.8 Q224 271.8 224.2 271.6 Q224.4 271.4 224.4 271.2 Q224.5 270.9 224.5 270.5 Q224.5 270.2 224.6 269.7 Q224.6 269.1 224.6 268.4 Q224.6 267.7 224.7 266.9 Q224.7 266.2 224.7 265.5 Q224.8 264.7 224.8 264.2 Q224.8 263.6 224.8 263.4 L222.3 263.4 Q222.2 264.8 222.2 265.9 Q222.1 267 222 267.9 Q221.9 268.8 221.7 269.5 Q221.5 270.3 221.2 271 Q220.8 271.7 220.4 272.4 Q219.9 273.1 219.3 273.9 L218.2 273.1 Q218.9 272.4 219.3 271.8 Q219.7 271.2 220.1 270.6 Q220.4 269.9 220.5 269.2 Q220.7 268.5 220.8 267.7 Q221 266.8 221 265.8 Q221.1 264.7 221.1 263.4 L219.1 263.4 L219.1 262.2 L221.1 262.2 Q221.1 261.7 221.1 261.2 Q221.2 260.7 221.2 260.2 Q221.2 259.7 221.2 259.2 L222.4 259.2 Q222.3 259.7 222.3 260.2 Q222.3 260.6 222.3 261.2 Q222.3 261.7 222.3 262.2 L225.9 262.2 Z M219.1 261.5 L213.5 261.5 L213.5 260.4 L219.1 260.4 L219.1 261.5 Z M218.5 272 Q218.4 271.6 218.2 271.2 Q217.8 271.2 217.2 271.3 Q216.5 271.4 215.9 271.5 Q215.4 271.6 214.9 271.7 Q214.4 271.7 214.2 271.8 Q213.9 271.8 213.7 271.9 Q213.5 271.9 213.2 272 L212.8 270.8 Q213.1 270.7 213.2 270.5 Q213.3 270.3 213.5 270.1 Q213.6 269.8 213.8 269.2 Q214.1 268.7 214.3 268 Q214.5 267.4 214.8 266.8 Q215 266.1 215.2 265.5 L212.6 265.5 L212.6 264.4 L219.6 264.4 L219.6 265.5 L216.4 265.5 Q216.2 266.1 216 266.8 Q215.8 267.5 215.5 268.2 Q215.2 268.9 215 269.5 Q214.8 270.1 214.5 270.5 Q214.7 270.5 215.1 270.4 Q215.5 270.4 216 270.3 Q216.5 270.2 217 270.2 Q217.5 270.1 217.9 270 Q217.6 269.3 217.3 268.5 Q216.9 267.8 216.7 267.2 L217.7 266.8 Q217.9 267.2 218.2 267.8 Q218.5 268.4 218.7 269.1 Q219 269.7 219.2 270.3 Q219.4 270.9 219.5 271.4 L218.5 272 Z M248.2 263.3 L240.6 263.3 L240.6 260 L241.6 260 L241.6 262.3 L243.8 262.3 L243.8 259.1 L244.9 259.2 L244.9 262.3 L247.1 262.3 L247.1 260 L248.2 260 L248.2 263.3 Z M240 262.8 L235.4 262.8 L235.4 261.7 L237.4 261.7 Q237.3 261.4 237.2 261 Q237.2 260.7 237.1 260.4 Q237 260.1 236.9 259.8 Q236.8 259.5 236.8 259.4 L237.8 259.2 Q237.9 259.4 238 259.7 Q238.1 260 238.1 260.3 Q238.2 260.7 238.3 261 Q238.4 261.4 238.5 261.7 L240 261.7 L240 262.8 Z M240.1 270.7 L240.1 271.2 Q239.7 271.3 239 271.5 Q238.3 271.7 237.6 271.8 Q236.9 272 236.3 272.1 Q235.6 272.3 235.2 272.4 L234.8 271.2 Q235.3 271.2 236 271 Q236.6 270.9 237.3 270.8 Q237.6 270.1 237.8 269.1 Q238 268.2 238.1 267.2 Q238.3 266.2 238.5 265.3 Q238.6 264.4 238.6 263.7 L239.7 263.9 Q239.6 264.5 239.5 265.3 Q239.4 266.2 239.2 267.1 Q239.1 268 238.8 268.9 Q238.6 269.8 238.5 270.5 Q238.9 270.4 239.3 270.3 Q239.7 270.2 240 270.1 L240.1 270.7 Z M236.6 269.6 Q236.5 269 236.4 268.2 Q236.3 267.5 236.1 266.8 Q236 266 235.8 265.3 Q235.7 264.6 235.6 264 L236.6 263.8 Q236.7 264.4 236.8 265.1 Q237 265.8 237.1 266.6 Q237.2 267.3 237.3 268 Q237.5 268.8 237.6 269.4 L236.6 269.6 Z M244.9 265.6 Q244.8 266 244.6 266.4 Q244.5 266.8 244.3 267.2 L248.5 267.2 L248.5 272.1 Q248.5 272.5 248.4 272.8 Q248.3 273 248.1 273.2 Q247.9 273.3 247.6 273.4 Q247.3 273.5 246.8 273.5 L246.2 273.6 L245.9 272.7 L246.6 272.6 Q246.9 272.6 247 272.5 Q247.2 272.5 247.3 272.4 Q247.4 272.4 247.4 272.2 Q247.5 272.1 247.5 271.8 L247.5 268.2 L246 268.2 L246 272.5 L245 272.5 L245 268.2 L243.7 268.2 L243.7 272.8 L242.7 272.8 L242.7 268.2 L241.4 268.2 L241.4 273.5 L240.4 273.5 L240.4 267.2 L243.1 267.2 Q243.3 266.8 243.4 266.4 Q243.6 266 243.7 265.6 L240.1 265.6 L240.1 264.7 L249.2 264.7 L249.2 265.6 L244.9 265.6 Z M265 261.7 L262.9 261.7 L262.9 260.7 L265 260.7 L265 259.1 L266.1 259.2 L266.1 260.7 L268.5 260.7 L268.5 259.1 L269.5 259.2 L269.5 260.7 L272 260.7 L272 261.7 L269.5 261.7 L269.5 262.7 L268.5 262.7 L268.5 261.7 L266.1 261.7 L266.1 262.7 L265 262.7 L265 261.7 Z M262.5 267.6 Q262.3 267.3 262 266.8 Q261.6 266.3 261.3 265.9 L261.3 273.5 L260.2 273.5 L260.2 265.6 Q259.8 266.7 259.3 267.6 Q258.9 268.5 258.4 269.3 L257.5 268.7 Q257.8 268.2 258.2 267.5 Q258.6 266.8 258.9 266.1 Q259.3 265.4 259.6 264.7 Q259.9 263.9 260.1 263.2 L258.2 263.2 L258.2 262.2 L260.2 262.2 L260.2 259.2 L261.3 259.2 L261.3 262.2 L263 262.2 L263 263.2 L261.3 263.2 L261.3 265.1 L261.6 264.8 Q261.8 265 262 265.2 Q262.2 265.5 262.5 265.8 Q262.7 266.1 262.9 266.3 Q263.1 266.6 263.2 266.8 L262.5 267.6 Z M267.9 270 Q268.5 270.9 269.6 271.5 Q270.7 272.2 272.5 272.5 L272.1 273.7 Q270.2 273.2 269.1 272.5 Q267.9 271.8 267.2 270.8 Q266.7 271.7 265.6 272.4 Q264.5 273.1 262.5 273.7 L261.9 272.7 Q263.9 272.2 264.9 271.5 Q266 270.9 266.3 270 L262.6 270 L262.6 269 L266.6 269 Q266.6 269 266.6 268.8 Q266.6 268.7 266.6 268.4 Q266.6 268.2 266.6 267.9 L263.4 267.9 L263.4 263.1 L271 263.1 L271 267.9 L267.7 267.9 Q267.7 268.2 267.7 268.4 Q267.7 268.6 267.7 268.8 L267.7 269 L272 269 L272 270 L267.9 270 Z M264.5 264 L264.5 265.1 L269.9 265.1 L269.9 264 L264.5 264 Z M264.5 267 L269.9 267 L269.9 265.9 L264.5 265.9 L264.5 267 Z M290 267.6 Q290.5 269.2 291.8 270.4 Q293.1 271.6 295.1 272.5 L294.4 273.6 Q292.4 272.7 291.2 271.5 Q289.9 270.4 289.3 268.8 Q288.8 270.2 287.6 271.3 Q286.5 272.5 284.6 273.7 L283.8 272.6 Q284.9 272 285.6 271.5 Q286.4 270.9 287 270.3 Q287.6 269.7 287.9 269 Q288.2 268.4 288.4 267.6 L285.1 267.6 L285.1 266.4 L288.6 266.4 Q288.6 266.4 288.6 266.3 Q288.6 266.2 288.6 266.1 Q288.6 266 288.6 265.7 Q288.6 265.4 288.6 264.9 Q288.6 264.5 288.6 264 Q288.6 263.4 288.6 262.8 L285.8 262.8 L285.8 261.7 L288.6 261.7 L288.6 259.2 L289.8 259.2 L289.8 261.7 L293.4 261.7 L293.4 266.4 L294.8 266.4 L294.8 267.6 L290 267.6 Z M286.1 270.1 Q285.6 270.3 284.9 270.6 Q284.2 270.8 283.4 271.1 Q282.7 271.4 282 271.6 Q281.3 271.8 280.8 271.9 L280.5 270.7 Q281 270.6 281.6 270.4 Q282.2 270.2 282.8 270 L282.8 264.6 L281 264.6 L281 263.5 L282.8 263.5 L282.8 259.3 L284 259.3 L284 263.5 L285.8 263.5 L285.8 264.6 L284 264.6 L284 269.7 Q284.5 269.5 285 269.3 Q285.5 269.1 285.9 269 L286 269.5 L286.1 270.1 Z M289.8 266 Q289.8 266.1 289.8 266.2 Q289.8 266.3 289.8 266.4 L292.2 266.4 L292.2 262.8 L289.8 262.8 Q289.8 263.4 289.8 263.9 Q289.8 264.5 289.8 264.9 Q289.8 265.3 289.8 265.6 Q289.8 265.9 289.8 266 Z M308.7 259.6 Q308.4 260.6 308 261.5 Q307.6 262.4 307.1 263.2 L307.1 273.5 L305.9 273.5 L305.9 265.2 Q305.4 265.8 304.9 266.5 Q304.5 267 304 267.6 L303.2 266.7 Q303.8 266 304.5 265.1 Q305.1 264.2 305.7 263.2 Q306.2 262.2 306.7 261.2 Q307.2 260.2 307.5 259.2 L308.7 259.6 Z M317.5 269.1 Q317.5 269.6 317.5 270.2 Q317.4 270.7 317.3 271.2 Q317.2 271.7 317.1 272 Q317 272.4 316.7 272.6 Q316.5 272.8 316.1 272.9 Q315.7 273 315.1 273 Q313.9 273.1 312.7 273 Q312.1 273 311.7 272.9 Q311.3 272.8 311 272.5 Q310.8 272.3 310.7 271.9 Q310.6 271.5 310.6 270.9 L310.6 268.2 Q310 268.6 309.3 269 Q308.7 269.4 308 269.7 L307.4 268.7 Q309 267.8 310.6 266.6 L310.6 259.2 L311.8 259.3 L311.8 265.7 Q314.2 263.8 316.3 261.3 L317.2 262.2 Q315.9 263.6 314.6 264.9 Q313.3 266.1 311.8 267.2 L311.8 270.6 Q311.8 271 311.9 271.2 Q312 271.4 312.1 271.5 Q312.2 271.7 312.5 271.7 Q312.7 271.8 313 271.8 Q314 271.8 314.9 271.8 Q315.3 271.8 315.5 271.7 Q315.7 271.7 315.8 271.6 Q316 271.4 316 271.2 Q316.1 271.1 316.2 270.8 Q316.3 270.3 316.3 269.8 Q316.3 269.3 316.4 268.7 L317.5 269.1 Z M332.4 261.4 Q331.9 262.3 331.3 263.2 L332.9 263.2 L332.9 272.1 Q332.9 272.4 332.9 272.7 Q332.8 272.9 332.7 273 Q332.5 273.1 332.2 273.2 Q332 273.3 331.6 273.3 L331.1 273.4 L330.8 272.4 L331.3 272.4 Q331.5 272.3 331.7 272.3 Q331.8 272.2 331.9 272.2 Q331.9 272.1 331.9 272 Q332 271.9 332 271.7 L332 269.7 L330.6 269.7 L330.6 272.7 L329.6 272.7 L329.6 269.7 L328.2 269.7 Q328.2 270.4 328.1 270.9 Q328 271.4 327.8 271.8 Q327.7 272.3 327.5 272.7 Q327.3 273.2 327.1 273.6 L326.1 273.2 Q326.4 272.5 326.7 271.9 Q326.9 271.3 327 270.7 Q327.2 270 327.2 269.2 Q327.3 268.4 327.3 267.2 L327.3 263.7 L326.6 264.4 L325.9 263.6 Q326.8 262.7 327.7 261.5 Q328.5 260.3 329.1 259 L330.2 259.3 Q330 259.6 329.9 259.9 Q329.7 260.2 329.6 260.5 L332.4 260.5 L332.4 261.4 Z M333.1 264.4 Q333.6 264 334 263.7 Q334.3 263.3 334.5 263 Q334.8 262.7 334.9 262.3 Q335 262 335.1 261.5 Q335.2 261.4 335.2 261.3 Q335.2 261.2 335.2 261 L333.5 261 L333.5 260 L339.7 260 Q339.6 260.8 339.6 261.3 Q339.6 261.8 339.5 262.3 Q339.5 262.7 339.5 262.8 Q339.4 263.3 339.4 263.6 Q339.3 263.9 339 264.1 Q338.8 264.2 338.5 264.4 Q338.1 264.5 337.5 264.5 L337 264.5 L336.7 263.5 L337.4 263.5 Q337.7 263.4 337.9 263.4 Q338.1 263.3 338.2 263.2 Q338.3 263.1 338.3 263 Q338.4 262.8 338.4 262.5 Q338.4 262.4 338.4 262.2 Q338.5 262 338.5 261.8 Q338.5 261.5 338.5 261.3 Q338.6 261.1 338.6 261 L336.3 261 Q336.3 261.2 336.2 261.5 Q336.2 261.7 336.2 261.8 Q336.1 262.4 335.9 262.8 Q335.7 263.2 335.4 263.6 Q335.2 264 334.7 264.4 Q334.3 264.8 333.8 265.2 L333.1 264.4 Z M329 261.5 Q328.7 262 328.4 262.4 Q328 262.8 327.7 263.2 L330.1 263.2 Q330.4 262.8 330.6 262.4 Q330.9 261.9 331.2 261.5 L329 261.5 Z M328.3 264.2 L328.3 266 L329.6 266 L329.6 264.2 L328.3 264.2 Z M332 264.2 L330.6 264.2 L330.6 266 L332 266 L332 264.2 Z M340.5 270.5 L337.6 270.5 L337.6 273.6 L336.5 273.6 L336.5 270.5 L333.3 270.5 L333.3 269.4 L336.5 269.4 L336.5 267.5 L334.9 267.5 Q334.7 268 334.5 268.4 Q334.4 268.8 334.2 269.2 L333.3 268.8 Q333.4 268.4 333.6 268 Q333.8 267.5 334 267 Q334.2 266.5 334.3 266 Q334.4 265.5 334.5 265.1 L335.5 265.2 Q335.4 265.5 335.4 265.8 Q335.3 266.1 335.2 266.5 L336.5 266.5 L336.5 264.8 L337.6 264.9 L337.6 266.5 L340 266.5 L340 267.5 L337.6 267.5 L337.6 269.4 L340.5 269.4 L340.5 270.5 Z M329.6 268.7 L329.6 267 L328.3 267 L328.3 267.6 Q328.3 267.9 328.3 268.2 Q328.3 268.5 328.3 268.7 L329.6 268.7 Z M332 268.7 L332 267 L330.6 267 L330.6 268.7 L332 268.7 Z M357.6 267.5 Q358.2 269.2 359.6 270.4 Q361 271.5 363.3 272.4 L362.6 273.6 Q361.5 273.1 360.6 272.5 Q359.7 272 359 271.4 Q358.3 270.9 357.8 270.2 Q357.3 269.6 356.9 268.8 Q356.3 270.2 355.1 271.3 Q353.8 272.5 351.8 273.6 L351 272.6 Q352.2 272 353.1 271.4 Q353.9 270.8 354.5 270.2 Q355.1 269.6 355.5 269 Q355.8 268.3 356 267.5 L352.6 267.5 L352.6 266.4 L356.1 266.4 Q356.1 266.3 356.1 266.2 Q356.1 266.1 356.1 266.1 L356.2 262.8 L353.2 262.8 L353.2 261.7 L356.2 261.7 L356.2 259.1 L357.4 259.2 L357.4 261.7 L361.3 261.7 L361.3 266.4 L363 266.4 L363 267.5 L357.6 267.5 Z M351.2 264.7 Q351.1 264.2 350.8 263.6 Q350.6 263 350.4 262.4 Q350.1 261.8 349.8 261.3 Q349.5 260.7 349.3 260.4 L350.4 259.8 Q350.6 260.2 350.9 260.8 Q351.2 261.3 351.5 261.9 Q351.7 262.5 352 263 Q352.2 263.6 352.3 264 L351.2 264.7 Z M357.4 266 Q357.4 266.1 357.4 266.2 Q357.4 266.3 357.4 266.4 L360.2 266.4 L360.2 262.8 L357.4 262.8 Q357.4 263.4 357.4 264 Q357.4 264.5 357.4 264.9 Q357.4 265.4 357.4 265.7 Q357.4 265.9 357.4 266 Z M352.3 266.2 Q352.1 266.9 351.9 267.8 Q351.7 268.7 351.4 269.6 Q351.1 270.5 350.8 271.4 Q350.4 272.2 350.2 272.8 L349 272.4 Q349.3 271.8 349.6 271 Q349.9 270.2 350.2 269.3 Q350.5 268.4 350.7 267.5 Q350.9 266.6 351.1 266 L351.8 266.1 L352.3 266.2 Z M377.2 262.5 Q377.2 263 377.2 263.5 Q377.1 264.1 377.1 264.6 Q377.1 264.7 377.1 264.8 Q377.1 264.9 377.1 265 L383.7 265 Q383.6 265.1 383.6 265.6 Q383.6 266 383.6 266.6 Q383.5 267.2 383.5 267.8 Q383.5 268.5 383.4 269.1 Q383.4 269.7 383.3 270.1 Q383.3 270.6 383.3 270.7 Q383.2 271.4 383.1 271.9 Q382.9 272.4 382.5 272.6 Q382.2 272.9 381.6 273 Q381 273.2 380.2 273.2 L379 273.3 L378.5 272 L380.1 272 Q380.7 271.9 381.1 271.9 Q381.5 271.8 381.7 271.6 Q381.9 271.4 382 271.1 Q382.1 270.7 382.1 270.2 Q382.1 270.1 382.2 269.8 Q382.2 269.5 382.2 269.1 Q382.2 268.7 382.3 268.2 Q382.3 267.8 382.3 267.3 Q382.3 266.9 382.4 266.6 Q382.4 266.3 382.4 266.2 L377 266.2 Q376.8 267.4 376.5 268.3 Q376.2 269.3 375.7 270.2 Q375.2 271.1 374.5 271.9 Q373.7 272.8 372.7 273.7 L371.7 272.8 Q372.9 271.8 373.7 271 Q374.4 270.1 374.9 269.1 Q375.4 268.2 375.6 267.1 Q375.8 265.9 375.9 264.5 L376 262.5 L372.1 262.5 L372.1 261.4 L378.6 261.4 Q378.5 260.8 378.3 260.2 Q378.1 259.6 378 259.3 L379.1 259 Q379.2 259.2 379.3 259.5 Q379.4 259.8 379.5 260.1 Q379.6 260.5 379.7 260.8 Q379.8 261.1 379.9 261.4 L385.7 261.4 L385.7 262.5 L377.2 262.5 Z M396.8 262.9 L395.6 262.9 L395.6 260.7 L401.2 260.7 Q401.1 260.3 401 259.9 Q400.9 259.4 400.7 259.2 L401.8 259 Q401.9 259.1 401.9 259.3 Q402 259.5 402.1 259.8 Q402.2 260 402.3 260.2 Q402.3 260.5 402.4 260.7 L407.6 260.7 L407.6 262.9 L406.4 262.9 L406.4 261.6 L396.8 261.6 L396.8 262.9 Z M397.2 265.4 Q397.5 265.1 397.7 264.9 Q398 264.6 398.2 264.3 L394.7 264.3 L394.7 263.3 L399 263.3 Q399.3 262.9 399.5 262.6 Q399.8 262.2 400 261.9 L401.2 262.2 Q401 262.5 400.8 262.8 Q400.6 263 400.4 263.3 L408.5 263.3 L408.5 264.3 L405.5 264.3 Q405.1 264.8 404.7 265.2 Q404.2 265.6 403.6 266 Q404.7 266.3 405.8 266.7 Q406.9 267 407.7 267.2 L407.2 268.2 Q406.3 267.9 405 267.4 Q403.7 267 402.3 266.6 Q401.2 267.1 399.5 267.4 Q397.9 267.8 395.5 268 L395.1 267.1 Q397 266.9 398.4 266.7 Q399.7 266.5 400.7 266.2 Q399.7 265.9 398.8 265.7 Q397.9 265.5 397.2 265.4 Z M399.7 264.3 Q399.5 264.5 399.4 264.6 Q399.2 264.8 399.1 264.9 Q399.7 265 400.5 265.2 Q401.3 265.4 402.2 265.6 Q402.8 265.4 403.2 265 Q403.6 264.7 404 264.3 L399.7 264.3 Z M408.4 273.3 Q407.3 272.9 406.4 272.6 Q405.6 272.2 404.8 271.9 Q404.1 271.5 403.4 271.1 Q402.8 270.8 402.2 270.3 L402.2 273.8 L401 273.8 L401 270.4 Q399.8 271.3 398.3 272 Q396.8 272.7 394.7 273.3 L394.1 272.2 Q395.3 272 396.2 271.7 Q397.1 271.4 397.9 271 Q398.6 270.7 399.3 270.4 Q399.9 270 400.4 269.6 L394.9 269.6 L394.9 268.6 L401 268.6 L401 267.4 L402.2 267.4 L402.2 268.6 L408.3 268.6 L408.3 269.6 L402.8 269.6 Q403.4 270 404 270.4 Q404.6 270.7 405.4 271 Q406.1 271.4 407 271.7 Q407.9 272 409 272.2 L408.4 273.3 Z" style="" fill="#003373" transform="matrix(1,0,0,1,0,0)"/></g></g>
            </g>
            <g class="border">
            </g>
          </g>
          <defs id="defs">
            <mask xmlns="http://www.w3.org/2000/svg" id="mask">
                <rect id="showAll" fill="white" x="181" y="117" width="240" height="232"/>
                <rect id="hideNameBg" fill="black" x="0" y="0" width="0" height="0" stroke-width="2" stroke="black"/>
                <rect id="hideSloganBg" fill="black" x="0" y="0" width="0" height="0" stroke-width="2" stroke="black"/>
            </mask>
          
          </defs>
        </g>
        </svg>